<?xml version="1.0" standalone="no"?>
<svg xmlns="http://www.w3.org/2000/svg" width="1000" height="1300" viewBox="0 0 1000 1300"><defs><clipPath id="clip-path-dot-color"><rect x="153" y="322" width="21" height="21" transform="rotate(0,163.5,332.5)"/><rect x="153" y="343" width="21" height="21" transform="rotate(0,163.5,353.5)"/><rect x="153" y="385" width="21" height="21" transform="rotate(0,163.5,395.5)"/><rect x="153" y="406" width="21" height="21" transform="rotate(0,163.5,416.5)"/><rect x="153" y="448" width="21" height="21" transform="rotate(0,163.5,458.5)"/><rect x="153" y="511" width="21" height="21" transform="rotate(0,163.5,521.5)"/><rect x="153" y="553" width="21" height="21" transform="rotate(0,163.5,563.5)"/><rect x="153" y="616" width="21" height="21" transform="rotate(0,163.5,626.5)"/><rect x="153" y="658" width="21" height="21" transform="rotate(0,163.5,668.5)"/><rect x="174" y="343" width="21" height="21" transform="rotate(0,184.5,353.5)"/><rect x="174" y="406" width="21" height="21" transform="rotate(0,184.5,416.5)"/><rect x="174" y="490" width="21" height="21" transform="rotate(0,184.5,500.5)"/><rect x="174" y="511" width="21" height="21" transform="rotate(0,184.5,521.5)"/><rect x="174" y="553" width="21" height="21" transform="rotate(0,184.5,563.5)"/><rect x="174" y="595" width="21" height="21" transform="rotate(0,184.5,605.5)"/><rect x="174" y="616" width="21" height="21" transform="rotate(0,184.5,626.5)"/><rect x="174" y="658" width="21" height="21" transform="rotate(0,184.5,668.5)"/><rect x="195" y="322" width="21" height="21" transform="rotate(0,205.5,332.5)"/><rect x="195" y="343" width="21" height="21" transform="rotate(0,205.5,353.5)"/><rect x="195" y="385" width="21" height="21" transform="rotate(0,205.5,395.5)"/><rect x="195" y="406" width="21" height="21" transform="rotate(0,205.5,416.5)"/><rect x="195" y="427" width="21" height="21" transform="rotate(0,205.5,437.5)"/><rect x="195" y="448" width="21" height="21" transform="rotate(0,205.5,458.5)"/><rect x="195" y="469" width="21" height="21" transform="rotate(0,205.5,479.5)"/><rect x="195" y="574" width="21" height="21" transform="rotate(0,205.5,584.5)"/><rect x="195" y="595" width="21" height="21" transform="rotate(0,205.5,605.5)"/><rect x="195" y="616" width="21" height="21" transform="rotate(0,205.5,626.5)"/><rect x="195" y="637" width="21" height="21" transform="rotate(0,205.5,647.5)"/><rect x="195" y="658" width="21" height="21" transform="rotate(0,205.5,668.5)"/><rect x="216" y="343" width="21" height="21" transform="rotate(0,226.5,353.5)"/><rect x="216" y="364" width="21" height="21" transform="rotate(0,226.5,374.5)"/><rect x="216" y="406" width="21" height="21" transform="rotate(0,226.5,416.5)"/><rect x="216" y="448" width="21" height="21" transform="rotate(0,226.5,458.5)"/><rect x="216" y="490" width="21" height="21" transform="rotate(0,226.5,500.5)"/><rect x="216" y="574" width="21" height="21" transform="rotate(0,226.5,584.5)"/><rect x="216" y="595" width="21" height="21" transform="rotate(0,226.5,605.5)"/><rect x="216" y="616" width="21" height="21" transform="rotate(0,226.5,626.5)"/><rect x="216" y="637" width="21" height="21" transform="rotate(0,226.5,647.5)"/><rect x="237" y="322" width="21" height="21" transform="rotate(0,247.5,332.5)"/><rect x="237" y="364" width="21" height="21" transform="rotate(0,247.5,374.5)"/><rect x="237" y="406" width="21" height="21" transform="rotate(0,247.5,416.5)"/><rect x="237" y="427" width="21" height="21" transform="rotate(0,247.5,437.5)"/><rect x="237" y="448" width="21" height="21" transform="rotate(0,247.5,458.5)"/><rect x="237" y="553" width="21" height="21" transform="rotate(0,247.5,563.5)"/><rect x="237" y="658" width="21" height="21" transform="rotate(0,247.5,668.5)"/><rect x="258" y="343" width="21" height="21" transform="rotate(0,268.5,353.5)"/><rect x="258" y="364" width="21" height="21" transform="rotate(0,268.5,374.5)"/><rect x="258" y="406" width="21" height="21" transform="rotate(0,268.5,416.5)"/><rect x="258" y="427" width="21" height="21" transform="rotate(0,268.5,437.5)"/><rect x="258" y="448" width="21" height="21" transform="rotate(0,268.5,458.5)"/><rect x="258" y="469" width="21" height="21" transform="rotate(0,268.5,479.5)"/><rect x="258" y="490" width="21" height="21" transform="rotate(0,268.5,500.5)"/><rect x="258" y="511" width="21" height="21" transform="rotate(0,268.5,521.5)"/><rect x="258" y="553" width="21" height="21" transform="rotate(0,268.5,563.5)"/><rect x="258" y="616" width="21" height="21" transform="rotate(0,268.5,626.5)"/><rect x="279" y="322" width="21" height="21" transform="rotate(0,289.5,332.5)"/><rect x="279" y="364" width="21" height="21" transform="rotate(0,289.5,374.5)"/><rect x="279" y="406" width="21" height="21" transform="rotate(0,289.5,416.5)"/><rect x="279" y="448" width="21" height="21" transform="rotate(0,289.5,458.5)"/><rect x="279" y="490" width="21" height="21" transform="rotate(0,289.5,500.5)"/><rect x="279" y="532" width="21" height="21" transform="rotate(0,289.5,542.5)"/><rect x="279" y="574" width="21" height="21" transform="rotate(0,289.5,584.5)"/><rect x="279" y="616" width="21" height="21" transform="rotate(0,289.5,626.5)"/><rect x="279" y="658" width="21" height="21" transform="rotate(0,289.5,668.5)"/><rect x="300" y="322" width="21" height="21" transform="rotate(0,310.5,332.5)"/><rect x="300" y="343" width="21" height="21" transform="rotate(0,310.5,353.5)"/><rect x="300" y="364" width="21" height="21" transform="rotate(0,310.5,374.5)"/><rect x="300" y="427" width="21" height="21" transform="rotate(0,310.5,437.5)"/><rect x="300" y="511" width="21" height="21" transform="rotate(0,310.5,521.5)"/><rect x="300" y="532" width="21" height="21" transform="rotate(0,310.5,542.5)"/><rect x="300" y="658" width="21" height="21" transform="rotate(0,310.5,668.5)"/><rect x="321" y="259" width="21" height="21" transform="rotate(0,331.5,269.5)"/><rect x="321" y="280" width="21" height="21" transform="rotate(0,331.5,290.5)"/><rect x="321" y="490" width="21" height="21" transform="rotate(0,331.5,500.5)"/><rect x="321" y="511" width="21" height="21" transform="rotate(0,331.5,521.5)"/><rect x="321" y="553" width="21" height="21" transform="rotate(0,331.5,563.5)"/><rect x="321" y="574" width="21" height="21" transform="rotate(0,331.5,584.5)"/><rect x="321" y="616" width="21" height="21" transform="rotate(0,331.5,626.5)"/><rect x="321" y="658" width="21" height="21" transform="rotate(0,331.5,668.5)"/><rect x="321" y="700" width="21" height="21" transform="rotate(0,331.5,710.5)"/><rect x="321" y="742" width="21" height="21" transform="rotate(0,331.5,752.5)"/><rect x="321" y="784" width="21" height="21" transform="rotate(0,331.5,794.5)"/><rect x="321" y="826" width="21" height="21" transform="rotate(0,331.5,836.5)"/><rect x="342" y="154" width="21" height="21" transform="rotate(0,352.5,164.5)"/><rect x="342" y="259" width="21" height="21" transform="rotate(0,352.5,269.5)"/><rect x="342" y="322" width="21" height="21" transform="rotate(0,352.5,332.5)"/><rect x="342" y="385" width="21" height="21" transform="rotate(0,352.5,395.5)"/><rect x="342" y="427" width="21" height="21" transform="rotate(0,352.5,437.5)"/><rect x="342" y="448" width="21" height="21" transform="rotate(0,352.5,458.5)"/><rect x="342" y="469" width="21" height="21" transform="rotate(0,352.5,479.5)"/><rect x="342" y="595" width="21" height="21" transform="rotate(0,352.5,605.5)"/><rect x="342" y="616" width="21" height="21" transform="rotate(0,352.5,626.5)"/><rect x="342" y="679" width="21" height="21" transform="rotate(0,352.5,689.5)"/><rect x="342" y="721" width="21" height="21" transform="rotate(0,352.5,731.5)"/><rect x="342" y="742" width="21" height="21" transform="rotate(0,352.5,752.5)"/><rect x="342" y="805" width="21" height="21" transform="rotate(0,352.5,815.5)"/><rect x="363" y="217" width="21" height="21" transform="rotate(0,373.5,227.5)"/><rect x="363" y="259" width="21" height="21" transform="rotate(0,373.5,269.5)"/><rect x="363" y="280" width="21" height="21" transform="rotate(0,373.5,290.5)"/><rect x="363" y="301" width="21" height="21" transform="rotate(0,373.5,311.5)"/><rect x="363" y="322" width="21" height="21" transform="rotate(0,373.5,332.5)"/><rect x="363" y="406" width="21" height="21" transform="rotate(0,373.5,416.5)"/><rect x="363" y="427" width="21" height="21" transform="rotate(0,373.5,437.5)"/><rect x="363" y="448" width="21" height="21" transform="rotate(0,373.5,458.5)"/><rect x="363" y="511" width="21" height="21" transform="rotate(0,373.5,521.5)"/><rect x="363" y="532" width="21" height="21" transform="rotate(0,373.5,542.5)"/><rect x="363" y="553" width="21" height="21" transform="rotate(0,373.5,563.5)"/><rect x="363" y="616" width="21" height="21" transform="rotate(0,373.5,626.5)"/><rect x="363" y="658" width="21" height="21" transform="rotate(0,373.5,668.5)"/><rect x="363" y="700" width="21" height="21" transform="rotate(0,373.5,710.5)"/><rect x="363" y="721" width="21" height="21" transform="rotate(0,373.5,731.5)"/><rect x="363" y="784" width="21" height="21" transform="rotate(0,373.5,794.5)"/><rect x="363" y="805" width="21" height="21" transform="rotate(0,373.5,815.5)"/><rect x="384" y="175" width="21" height="21" transform="rotate(0,394.5,185.5)"/><rect x="384" y="259" width="21" height="21" transform="rotate(0,394.5,269.5)"/><rect x="384" y="301" width="21" height="21" transform="rotate(0,394.5,311.5)"/><rect x="384" y="406" width="21" height="21" transform="rotate(0,394.5,416.5)"/><rect x="384" y="553" width="21" height="21" transform="rotate(0,394.5,563.5)"/><rect x="384" y="574" width="21" height="21" transform="rotate(0,394.5,584.5)"/><rect x="384" y="595" width="21" height="21" transform="rotate(0,394.5,605.5)"/><rect x="384" y="679" width="21" height="21" transform="rotate(0,394.5,689.5)"/><rect x="384" y="721" width="21" height="21" transform="rotate(0,394.5,731.5)"/><rect x="384" y="763" width="21" height="21" transform="rotate(0,394.5,773.5)"/><rect x="384" y="784" width="21" height="21" transform="rotate(0,394.5,794.5)"/><rect x="384" y="805" width="21" height="21" transform="rotate(0,394.5,815.5)"/><rect x="405" y="175" width="21" height="21" transform="rotate(0,415.5,185.5)"/><rect x="405" y="196" width="21" height="21" transform="rotate(0,415.5,206.5)"/><rect x="405" y="217" width="21" height="21" transform="rotate(0,415.5,227.5)"/><rect x="405" y="238" width="21" height="21" transform="rotate(0,415.5,248.5)"/><rect x="405" y="280" width="21" height="21" transform="rotate(0,415.5,290.5)"/><rect x="405" y="322" width="21" height="21" transform="rotate(0,415.5,332.5)"/><rect x="405" y="385" width="21" height="21" transform="rotate(0,415.5,395.5)"/><rect x="405" y="469" width="21" height="21" transform="rotate(0,415.5,479.5)"/><rect x="405" y="532" width="21" height="21" transform="rotate(0,415.5,542.5)"/><rect x="405" y="574" width="21" height="21" transform="rotate(0,415.5,584.5)"/><rect x="405" y="595" width="21" height="21" transform="rotate(0,415.5,605.5)"/><rect x="405" y="637" width="21" height="21" transform="rotate(0,415.5,647.5)"/><rect x="405" y="658" width="21" height="21" transform="rotate(0,415.5,668.5)"/><rect x="405" y="679" width="21" height="21" transform="rotate(0,415.5,689.5)"/><rect x="405" y="700" width="21" height="21" transform="rotate(0,415.5,710.5)"/><rect x="405" y="721" width="21" height="21" transform="rotate(0,415.5,731.5)"/><rect x="405" y="742" width="21" height="21" transform="rotate(0,415.5,752.5)"/><rect x="405" y="805" width="21" height="21" transform="rotate(0,415.5,815.5)"/><rect x="405" y="826" width="21" height="21" transform="rotate(0,415.5,836.5)"/><rect x="426" y="238" width="21" height="21" transform="rotate(0,436.5,248.5)"/><rect x="426" y="259" width="21" height="21" transform="rotate(0,436.5,269.5)"/><rect x="426" y="301" width="21" height="21" transform="rotate(0,436.5,311.5)"/><rect x="426" y="406" width="21" height="21" transform="rotate(0,436.5,416.5)"/><rect x="426" y="448" width="21" height="21" transform="rotate(0,436.5,458.5)"/><rect x="426" y="469" width="21" height="21" transform="rotate(0,436.5,479.5)"/><rect x="426" y="490" width="21" height="21" transform="rotate(0,436.5,500.5)"/><rect x="426" y="511" width="21" height="21" transform="rotate(0,436.5,521.5)"/><rect x="426" y="574" width="21" height="21" transform="rotate(0,436.5,584.5)"/><rect x="426" y="595" width="21" height="21" transform="rotate(0,436.5,605.5)"/><rect x="426" y="637" width="21" height="21" transform="rotate(0,436.5,647.5)"/><rect x="426" y="700" width="21" height="21" transform="rotate(0,436.5,710.5)"/><rect x="426" y="721" width="21" height="21" transform="rotate(0,436.5,731.5)"/><rect x="426" y="742" width="21" height="21" transform="rotate(0,436.5,752.5)"/><rect x="426" y="763" width="21" height="21" transform="rotate(0,436.5,773.5)"/><rect x="426" y="826" width="21" height="21" transform="rotate(0,436.5,836.5)"/><rect x="447" y="154" width="21" height="21" transform="rotate(0,457.5,164.5)"/><rect x="447" y="175" width="21" height="21" transform="rotate(0,457.5,185.5)"/><rect x="447" y="238" width="21" height="21" transform="rotate(0,457.5,248.5)"/><rect x="447" y="280" width="21" height="21" transform="rotate(0,457.5,290.5)"/><rect x="447" y="301" width="21" height="21" transform="rotate(0,457.5,311.5)"/><rect x="447" y="322" width="21" height="21" transform="rotate(0,457.5,332.5)"/><rect x="447" y="343" width="21" height="21" transform="rotate(0,457.5,353.5)"/><rect x="447" y="385" width="21" height="21" transform="rotate(0,457.5,395.5)"/><rect x="447" y="406" width="21" height="21" transform="rotate(0,457.5,416.5)"/><rect x="447" y="427" width="21" height="21" transform="rotate(0,457.5,437.5)"/><rect x="447" y="448" width="21" height="21" transform="rotate(0,457.5,458.5)"/><rect x="447" y="490" width="21" height="21" transform="rotate(0,457.5,500.5)"/><rect x="447" y="553" width="21" height="21" transform="rotate(0,457.5,563.5)"/><rect x="447" y="616" width="21" height="21" transform="rotate(0,457.5,626.5)"/><rect x="447" y="721" width="21" height="21" transform="rotate(0,457.5,731.5)"/><rect x="447" y="742" width="21" height="21" transform="rotate(0,457.5,752.5)"/><rect x="447" y="805" width="21" height="21" transform="rotate(0,457.5,815.5)"/><rect x="468" y="238" width="21" height="21" transform="rotate(0,478.5,248.5)"/><rect x="468" y="301" width="21" height="21" transform="rotate(0,478.5,311.5)"/><rect x="468" y="322" width="21" height="21" transform="rotate(0,478.5,332.5)"/><rect x="468" y="385" width="21" height="21" transform="rotate(0,478.5,395.5)"/><rect x="468" y="427" width="21" height="21" transform="rotate(0,478.5,437.5)"/><rect x="468" y="469" width="21" height="21" transform="rotate(0,478.5,479.5)"/><rect x="468" y="532" width="21" height="21" transform="rotate(0,478.5,542.5)"/><rect x="468" y="574" width="21" height="21" transform="rotate(0,478.5,584.5)"/><rect x="468" y="658" width="21" height="21" transform="rotate(0,478.5,668.5)"/><rect x="468" y="679" width="21" height="21" transform="rotate(0,478.5,689.5)"/><rect x="468" y="700" width="21" height="21" transform="rotate(0,478.5,710.5)"/><rect x="468" y="721" width="21" height="21" transform="rotate(0,478.5,731.5)"/><rect x="468" y="763" width="21" height="21" transform="rotate(0,478.5,773.5)"/><rect x="489" y="154" width="21" height="21" transform="rotate(0,499.5,164.5)"/><rect x="489" y="175" width="21" height="21" transform="rotate(0,499.5,185.5)"/><rect x="489" y="196" width="21" height="21" transform="rotate(0,499.5,206.5)"/><rect x="489" y="217" width="21" height="21" transform="rotate(0,499.5,227.5)"/><rect x="489" y="259" width="21" height="21" transform="rotate(0,499.5,269.5)"/><rect x="489" y="280" width="21" height="21" transform="rotate(0,499.5,290.5)"/><rect x="489" y="301" width="21" height="21" transform="rotate(0,499.5,311.5)"/><rect x="489" y="322" width="21" height="21" transform="rotate(0,499.5,332.5)"/><rect x="489" y="343" width="21" height="21" transform="rotate(0,499.5,353.5)"/><rect x="489" y="385" width="21" height="21" transform="rotate(0,499.5,395.5)"/><rect x="489" y="406" width="21" height="21" transform="rotate(0,499.5,416.5)"/><rect x="489" y="427" width="21" height="21" transform="rotate(0,499.5,437.5)"/><rect x="489" y="448" width="21" height="21" transform="rotate(0,499.5,458.5)"/><rect x="489" y="469" width="21" height="21" transform="rotate(0,499.5,479.5)"/><rect x="489" y="490" width="21" height="21" transform="rotate(0,499.5,500.5)"/><rect x="489" y="511" width="21" height="21" transform="rotate(0,499.5,521.5)"/><rect x="489" y="532" width="21" height="21" transform="rotate(0,499.5,542.5)"/><rect x="489" y="553" width="21" height="21" transform="rotate(0,499.5,563.5)"/><rect x="489" y="637" width="21" height="21" transform="rotate(0,499.5,647.5)"/><rect x="489" y="679" width="21" height="21" transform="rotate(0,499.5,689.5)"/><rect x="489" y="721" width="21" height="21" transform="rotate(0,499.5,731.5)"/><rect x="489" y="742" width="21" height="21" transform="rotate(0,499.5,752.5)"/><rect x="489" y="784" width="21" height="21" transform="rotate(0,499.5,794.5)"/><rect x="489" y="826" width="21" height="21" transform="rotate(0,499.5,836.5)"/><rect x="510" y="175" width="21" height="21" transform="rotate(0,520.5,185.5)"/><rect x="510" y="217" width="21" height="21" transform="rotate(0,520.5,227.5)"/><rect x="510" y="259" width="21" height="21" transform="rotate(0,520.5,269.5)"/><rect x="510" y="364" width="21" height="21" transform="rotate(0,520.5,374.5)"/><rect x="510" y="406" width="21" height="21" transform="rotate(0,520.5,416.5)"/><rect x="510" y="427" width="21" height="21" transform="rotate(0,520.5,437.5)"/><rect x="510" y="469" width="21" height="21" transform="rotate(0,520.5,479.5)"/><rect x="510" y="490" width="21" height="21" transform="rotate(0,520.5,500.5)"/><rect x="510" y="553" width="21" height="21" transform="rotate(0,520.5,563.5)"/><rect x="510" y="574" width="21" height="21" transform="rotate(0,520.5,584.5)"/><rect x="510" y="595" width="21" height="21" transform="rotate(0,520.5,605.5)"/><rect x="510" y="637" width="21" height="21" transform="rotate(0,520.5,647.5)"/><rect x="510" y="658" width="21" height="21" transform="rotate(0,520.5,668.5)"/><rect x="510" y="721" width="21" height="21" transform="rotate(0,520.5,731.5)"/><rect x="531" y="154" width="21" height="21" transform="rotate(0,541.5,164.5)"/><rect x="531" y="196" width="21" height="21" transform="rotate(0,541.5,206.5)"/><rect x="531" y="217" width="21" height="21" transform="rotate(0,541.5,227.5)"/><rect x="531" y="280" width="21" height="21" transform="rotate(0,541.5,290.5)"/><rect x="531" y="301" width="21" height="21" transform="rotate(0,541.5,311.5)"/><rect x="531" y="322" width="21" height="21" transform="rotate(0,541.5,332.5)"/><rect x="531" y="343" width="21" height="21" transform="rotate(0,541.5,353.5)"/><rect x="531" y="364" width="21" height="21" transform="rotate(0,541.5,374.5)"/><rect x="531" y="427" width="21" height="21" transform="rotate(0,541.5,437.5)"/><rect x="531" y="490" width="21" height="21" transform="rotate(0,541.5,500.5)"/><rect x="531" y="511" width="21" height="21" transform="rotate(0,541.5,521.5)"/><rect x="531" y="574" width="21" height="21" transform="rotate(0,541.5,584.5)"/><rect x="531" y="637" width="21" height="21" transform="rotate(0,541.5,647.5)"/><rect x="531" y="679" width="21" height="21" transform="rotate(0,541.5,689.5)"/><rect x="531" y="700" width="21" height="21" transform="rotate(0,541.5,710.5)"/><rect x="531" y="742" width="21" height="21" transform="rotate(0,541.5,752.5)"/><rect x="531" y="763" width="21" height="21" transform="rotate(0,541.5,773.5)"/><rect x="531" y="784" width="21" height="21" transform="rotate(0,541.5,794.5)"/><rect x="531" y="805" width="21" height="21" transform="rotate(0,541.5,815.5)"/><rect x="531" y="826" width="21" height="21" transform="rotate(0,541.5,836.5)"/><rect x="552" y="154" width="21" height="21" transform="rotate(0,562.5,164.5)"/><rect x="552" y="217" width="21" height="21" transform="rotate(0,562.5,227.5)"/><rect x="552" y="259" width="21" height="21" transform="rotate(0,562.5,269.5)"/><rect x="552" y="301" width="21" height="21" transform="rotate(0,562.5,311.5)"/><rect x="552" y="322" width="21" height="21" transform="rotate(0,562.5,332.5)"/><rect x="552" y="406" width="21" height="21" transform="rotate(0,562.5,416.5)"/><rect x="552" y="427" width="21" height="21" transform="rotate(0,562.5,437.5)"/><rect x="552" y="448" width="21" height="21" transform="rotate(0,562.5,458.5)"/><rect x="552" y="490" width="21" height="21" transform="rotate(0,562.5,500.5)"/><rect x="552" y="511" width="21" height="21" transform="rotate(0,562.5,521.5)"/><rect x="552" y="574" width="21" height="21" transform="rotate(0,562.5,584.5)"/><rect x="552" y="616" width="21" height="21" transform="rotate(0,562.5,626.5)"/><rect x="552" y="637" width="21" height="21" transform="rotate(0,562.5,647.5)"/><rect x="552" y="658" width="21" height="21" transform="rotate(0,562.5,668.5)"/><rect x="552" y="679" width="21" height="21" transform="rotate(0,562.5,689.5)"/><rect x="552" y="721" width="21" height="21" transform="rotate(0,562.5,731.5)"/><rect x="552" y="742" width="21" height="21" transform="rotate(0,562.5,752.5)"/><rect x="552" y="763" width="21" height="21" transform="rotate(0,562.5,773.5)"/><rect x="552" y="784" width="21" height="21" transform="rotate(0,562.5,794.5)"/><rect x="573" y="217" width="21" height="21" transform="rotate(0,583.5,227.5)"/><rect x="573" y="238" width="21" height="21" transform="rotate(0,583.5,248.5)"/><rect x="573" y="280" width="21" height="21" transform="rotate(0,583.5,290.5)"/><rect x="573" y="301" width="21" height="21" transform="rotate(0,583.5,311.5)"/><rect x="573" y="343" width="21" height="21" transform="rotate(0,583.5,353.5)"/><rect x="573" y="364" width="21" height="21" transform="rotate(0,583.5,374.5)"/><rect x="573" y="385" width="21" height="21" transform="rotate(0,583.5,395.5)"/><rect x="573" y="490" width="21" height="21" transform="rotate(0,583.5,500.5)"/><rect x="573" y="511" width="21" height="21" transform="rotate(0,583.5,521.5)"/><rect x="573" y="532" width="21" height="21" transform="rotate(0,583.5,542.5)"/><rect x="573" y="595" width="21" height="21" transform="rotate(0,583.5,605.5)"/><rect x="573" y="616" width="21" height="21" transform="rotate(0,583.5,626.5)"/><rect x="573" y="658" width="21" height="21" transform="rotate(0,583.5,668.5)"/><rect x="573" y="742" width="21" height="21" transform="rotate(0,583.5,752.5)"/><rect x="573" y="763" width="21" height="21" transform="rotate(0,583.5,773.5)"/><rect x="573" y="805" width="21" height="21" transform="rotate(0,583.5,815.5)"/><rect x="573" y="826" width="21" height="21" transform="rotate(0,583.5,836.5)"/><rect x="594" y="154" width="21" height="21" transform="rotate(0,604.5,164.5)"/><rect x="594" y="175" width="21" height="21" transform="rotate(0,604.5,185.5)"/><rect x="594" y="196" width="21" height="21" transform="rotate(0,604.5,206.5)"/><rect x="594" y="217" width="21" height="21" transform="rotate(0,604.5,227.5)"/><rect x="594" y="238" width="21" height="21" transform="rotate(0,604.5,248.5)"/><rect x="594" y="322" width="21" height="21" transform="rotate(0,604.5,332.5)"/><rect x="594" y="385" width="21" height="21" transform="rotate(0,604.5,395.5)"/><rect x="594" y="406" width="21" height="21" transform="rotate(0,604.5,416.5)"/><rect x="594" y="448" width="21" height="21" transform="rotate(0,604.5,458.5)"/><rect x="594" y="469" width="21" height="21" transform="rotate(0,604.5,479.5)"/><rect x="594" y="511" width="21" height="21" transform="rotate(0,604.5,521.5)"/><rect x="594" y="532" width="21" height="21" transform="rotate(0,604.5,542.5)"/><rect x="594" y="553" width="21" height="21" transform="rotate(0,604.5,563.5)"/><rect x="594" y="679" width="21" height="21" transform="rotate(0,604.5,689.5)"/><rect x="594" y="700" width="21" height="21" transform="rotate(0,604.5,710.5)"/><rect x="594" y="721" width="21" height="21" transform="rotate(0,604.5,731.5)"/><rect x="594" y="742" width="21" height="21" transform="rotate(0,604.5,752.5)"/><rect x="594" y="784" width="21" height="21" transform="rotate(0,604.5,794.5)"/><rect x="594" y="805" width="21" height="21" transform="rotate(0,604.5,815.5)"/><rect x="594" y="826" width="21" height="21" transform="rotate(0,604.5,836.5)"/><rect x="615" y="154" width="21" height="21" transform="rotate(0,625.5,164.5)"/><rect x="615" y="196" width="21" height="21" transform="rotate(0,625.5,206.5)"/><rect x="615" y="217" width="21" height="21" transform="rotate(0,625.5,227.5)"/><rect x="615" y="238" width="21" height="21" transform="rotate(0,625.5,248.5)"/><rect x="615" y="280" width="21" height="21" transform="rotate(0,625.5,290.5)"/><rect x="615" y="343" width="21" height="21" transform="rotate(0,625.5,353.5)"/><rect x="615" y="427" width="21" height="21" transform="rotate(0,625.5,437.5)"/><rect x="615" y="469" width="21" height="21" transform="rotate(0,625.5,479.5)"/><rect x="615" y="490" width="21" height="21" transform="rotate(0,625.5,500.5)"/><rect x="615" y="511" width="21" height="21" transform="rotate(0,625.5,521.5)"/><rect x="615" y="532" width="21" height="21" transform="rotate(0,625.5,542.5)"/><rect x="615" y="574" width="21" height="21" transform="rotate(0,625.5,584.5)"/><rect x="615" y="616" width="21" height="21" transform="rotate(0,625.5,626.5)"/><rect x="615" y="637" width="21" height="21" transform="rotate(0,625.5,647.5)"/><rect x="615" y="658" width="21" height="21" transform="rotate(0,625.5,668.5)"/><rect x="615" y="721" width="21" height="21" transform="rotate(0,625.5,731.5)"/><rect x="615" y="742" width="21" height="21" transform="rotate(0,625.5,752.5)"/><rect x="615" y="805" width="21" height="21" transform="rotate(0,625.5,815.5)"/><rect x="636" y="154" width="21" height="21" transform="rotate(0,646.5,164.5)"/><rect x="636" y="238" width="21" height="21" transform="rotate(0,646.5,248.5)"/><rect x="636" y="301" width="21" height="21" transform="rotate(0,646.5,311.5)"/><rect x="636" y="364" width="21" height="21" transform="rotate(0,646.5,374.5)"/><rect x="636" y="385" width="21" height="21" transform="rotate(0,646.5,395.5)"/><rect x="636" y="448" width="21" height="21" transform="rotate(0,646.5,458.5)"/><rect x="636" y="490" width="21" height="21" transform="rotate(0,646.5,500.5)"/><rect x="636" y="511" width="21" height="21" transform="rotate(0,646.5,521.5)"/><rect x="636" y="532" width="21" height="21" transform="rotate(0,646.5,542.5)"/><rect x="636" y="553" width="21" height="21" transform="rotate(0,646.5,563.5)"/><rect x="636" y="574" width="21" height="21" transform="rotate(0,646.5,584.5)"/><rect x="636" y="616" width="21" height="21" transform="rotate(0,646.5,626.5)"/><rect x="636" y="637" width="21" height="21" transform="rotate(0,646.5,647.5)"/><rect x="636" y="721" width="21" height="21" transform="rotate(0,646.5,731.5)"/><rect x="636" y="763" width="21" height="21" transform="rotate(0,646.5,773.5)"/><rect x="636" y="784" width="21" height="21" transform="rotate(0,646.5,794.5)"/><rect x="636" y="805" width="21" height="21" transform="rotate(0,646.5,815.5)"/><rect x="657" y="154" width="21" height="21" transform="rotate(0,667.5,164.5)"/><rect x="657" y="175" width="21" height="21" transform="rotate(0,667.5,185.5)"/><rect x="657" y="280" width="21" height="21" transform="rotate(0,667.5,290.5)"/><rect x="657" y="301" width="21" height="21" transform="rotate(0,667.5,311.5)"/><rect x="657" y="364" width="21" height="21" transform="rotate(0,667.5,374.5)"/><rect x="657" y="490" width="21" height="21" transform="rotate(0,667.5,500.5)"/><rect x="657" y="511" width="21" height="21" transform="rotate(0,667.5,521.5)"/><rect x="657" y="532" width="21" height="21" transform="rotate(0,667.5,542.5)"/><rect x="657" y="658" width="21" height="21" transform="rotate(0,667.5,668.5)"/><rect x="657" y="679" width="21" height="21" transform="rotate(0,667.5,689.5)"/><rect x="657" y="700" width="21" height="21" transform="rotate(0,667.5,710.5)"/><rect x="657" y="721" width="21" height="21" transform="rotate(0,667.5,731.5)"/><rect x="657" y="742" width="21" height="21" transform="rotate(0,667.5,752.5)"/><rect x="657" y="763" width="21" height="21" transform="rotate(0,667.5,773.5)"/><rect x="657" y="826" width="21" height="21" transform="rotate(0,667.5,836.5)"/><rect x="678" y="322" width="21" height="21" transform="rotate(0,688.5,332.5)"/><rect x="678" y="364" width="21" height="21" transform="rotate(0,688.5,374.5)"/><rect x="678" y="385" width="21" height="21" transform="rotate(0,688.5,395.5)"/><rect x="678" y="406" width="21" height="21" transform="rotate(0,688.5,416.5)"/><rect x="678" y="469" width="21" height="21" transform="rotate(0,688.5,479.5)"/><rect x="678" y="532" width="21" height="21" transform="rotate(0,688.5,542.5)"/><rect x="678" y="574" width="21" height="21" transform="rotate(0,688.5,584.5)"/><rect x="678" y="637" width="21" height="21" transform="rotate(0,688.5,647.5)"/><rect x="678" y="658" width="21" height="21" transform="rotate(0,688.5,668.5)"/><rect x="678" y="742" width="21" height="21" transform="rotate(0,688.5,752.5)"/><rect x="678" y="763" width="21" height="21" transform="rotate(0,688.5,773.5)"/><rect x="678" y="784" width="21" height="21" transform="rotate(0,688.5,794.5)"/><rect x="678" y="805" width="21" height="21" transform="rotate(0,688.5,815.5)"/><rect x="678" y="826" width="21" height="21" transform="rotate(0,688.5,836.5)"/><rect x="699" y="343" width="21" height="21" transform="rotate(0,709.5,353.5)"/><rect x="699" y="364" width="21" height="21" transform="rotate(0,709.5,374.5)"/><rect x="699" y="406" width="21" height="21" transform="rotate(0,709.5,416.5)"/><rect x="699" y="448" width="21" height="21" transform="rotate(0,709.5,458.5)"/><rect x="699" y="469" width="21" height="21" transform="rotate(0,709.5,479.5)"/><rect x="699" y="490" width="21" height="21" transform="rotate(0,709.5,500.5)"/><rect x="699" y="532" width="21" height="21" transform="rotate(0,709.5,542.5)"/><rect x="699" y="553" width="21" height="21" transform="rotate(0,709.5,563.5)"/><rect x="699" y="595" width="21" height="21" transform="rotate(0,709.5,605.5)"/><rect x="699" y="637" width="21" height="21" transform="rotate(0,709.5,647.5)"/><rect x="699" y="658" width="21" height="21" transform="rotate(0,709.5,668.5)"/><rect x="699" y="700" width="21" height="21" transform="rotate(0,709.5,710.5)"/><rect x="699" y="742" width="21" height="21" transform="rotate(0,709.5,752.5)"/><rect x="699" y="763" width="21" height="21" transform="rotate(0,709.5,773.5)"/><rect x="699" y="805" width="21" height="21" transform="rotate(0,709.5,815.5)"/><rect x="720" y="322" width="21" height="21" transform="rotate(0,730.5,332.5)"/><rect x="720" y="343" width="21" height="21" transform="rotate(0,730.5,353.5)"/><rect x="720" y="385" width="21" height="21" transform="rotate(0,730.5,395.5)"/><rect x="720" y="406" width="21" height="21" transform="rotate(0,730.5,416.5)"/><rect x="720" y="427" width="21" height="21" transform="rotate(0,730.5,437.5)"/><rect x="720" y="490" width="21" height="21" transform="rotate(0,730.5,500.5)"/><rect x="720" y="511" width="21" height="21" transform="rotate(0,730.5,521.5)"/><rect x="720" y="532" width="21" height="21" transform="rotate(0,730.5,542.5)"/><rect x="720" y="658" width="21" height="21" transform="rotate(0,730.5,668.5)"/><rect x="720" y="742" width="21" height="21" transform="rotate(0,730.5,752.5)"/><rect x="720" y="784" width="21" height="21" transform="rotate(0,730.5,794.5)"/><rect x="720" y="805" width="21" height="21" transform="rotate(0,730.5,815.5)"/><rect x="741" y="385" width="21" height="21" transform="rotate(0,751.5,395.5)"/><rect x="741" y="532" width="21" height="21" transform="rotate(0,751.5,542.5)"/><rect x="741" y="595" width="21" height="21" transform="rotate(0,751.5,605.5)"/><rect x="741" y="658" width="21" height="21" transform="rotate(0,751.5,668.5)"/><rect x="741" y="679" width="21" height="21" transform="rotate(0,751.5,689.5)"/><rect x="741" y="700" width="21" height="21" transform="rotate(0,751.5,710.5)"/><rect x="741" y="721" width="21" height="21" transform="rotate(0,751.5,731.5)"/><rect x="741" y="742" width="21" height="21" transform="rotate(0,751.5,752.5)"/><rect x="741" y="805" width="21" height="21" transform="rotate(0,751.5,815.5)"/><rect x="741" y="826" width="21" height="21" transform="rotate(0,751.5,836.5)"/><rect x="762" y="385" width="21" height="21" transform="rotate(0,772.5,395.5)"/><rect x="762" y="448" width="21" height="21" transform="rotate(0,772.5,458.5)"/><rect x="762" y="469" width="21" height="21" transform="rotate(0,772.5,479.5)"/><rect x="762" y="490" width="21" height="21" transform="rotate(0,772.5,500.5)"/><rect x="762" y="511" width="21" height="21" transform="rotate(0,772.5,521.5)"/><rect x="762" y="532" width="21" height="21" transform="rotate(0,772.5,542.5)"/><rect x="762" y="574" width="21" height="21" transform="rotate(0,772.5,584.5)"/><rect x="762" y="595" width="21" height="21" transform="rotate(0,772.5,605.5)"/><rect x="762" y="616" width="21" height="21" transform="rotate(0,772.5,626.5)"/><rect x="762" y="637" width="21" height="21" transform="rotate(0,772.5,647.5)"/><rect x="762" y="679" width="21" height="21" transform="rotate(0,772.5,689.5)"/><rect x="762" y="721" width="21" height="21" transform="rotate(0,772.5,731.5)"/><rect x="762" y="742" width="21" height="21" transform="rotate(0,772.5,752.5)"/><rect x="762" y="784" width="21" height="21" transform="rotate(0,772.5,794.5)"/><rect x="762" y="805" width="21" height="21" transform="rotate(0,772.5,815.5)"/><rect x="783" y="364" width="21" height="21" transform="rotate(0,793.5,374.5)"/><rect x="783" y="406" width="21" height="21" transform="rotate(0,793.5,416.5)"/><rect x="783" y="427" width="21" height="21" transform="rotate(0,793.5,437.5)"/><rect x="783" y="448" width="21" height="21" transform="rotate(0,793.5,458.5)"/><rect x="783" y="490" width="21" height="21" transform="rotate(0,793.5,500.5)"/><rect x="783" y="511" width="21" height="21" transform="rotate(0,793.5,521.5)"/><rect x="783" y="532" width="21" height="21" transform="rotate(0,793.5,542.5)"/><rect x="783" y="553" width="21" height="21" transform="rotate(0,793.5,563.5)"/><rect x="783" y="637" width="21" height="21" transform="rotate(0,793.5,647.5)"/><rect x="783" y="658" width="21" height="21" transform="rotate(0,793.5,668.5)"/><rect x="783" y="742" width="21" height="21" transform="rotate(0,793.5,752.5)"/><rect x="783" y="784" width="21" height="21" transform="rotate(0,793.5,794.5)"/><rect x="783" y="805" width="21" height="21" transform="rotate(0,793.5,815.5)"/><rect x="783" y="826" width="21" height="21" transform="rotate(0,793.5,836.5)"/><rect x="804" y="364" width="21" height="21" transform="rotate(0,814.5,374.5)"/><rect x="804" y="427" width="21" height="21" transform="rotate(0,814.5,437.5)"/><rect x="804" y="448" width="21" height="21" transform="rotate(0,814.5,458.5)"/><rect x="804" y="511" width="21" height="21" transform="rotate(0,814.5,521.5)"/><rect x="804" y="595" width="21" height="21" transform="rotate(0,814.5,605.5)"/><rect x="804" y="679" width="21" height="21" transform="rotate(0,814.5,689.5)"/><rect x="804" y="700" width="21" height="21" transform="rotate(0,814.5,710.5)"/><rect x="804" y="784" width="21" height="21" transform="rotate(0,814.5,794.5)"/><rect x="825" y="343" width="21" height="21" transform="rotate(0,835.5,353.5)"/><rect x="825" y="364" width="21" height="21" transform="rotate(0,835.5,374.5)"/><rect x="825" y="385" width="21" height="21" transform="rotate(0,835.5,395.5)"/><rect x="825" y="406" width="21" height="21" transform="rotate(0,835.5,416.5)"/><rect x="825" y="427" width="21" height="21" transform="rotate(0,835.5,437.5)"/><rect x="825" y="595" width="21" height="21" transform="rotate(0,835.5,605.5)"/><rect x="825" y="616" width="21" height="21" transform="rotate(0,835.5,626.5)"/><rect x="825" y="637" width="21" height="21" transform="rotate(0,835.5,647.5)"/><rect x="825" y="658" width="21" height="21" transform="rotate(0,835.5,668.5)"/><rect x="825" y="700" width="21" height="21" transform="rotate(0,835.5,710.5)"/><rect x="825" y="763" width="21" height="21" transform="rotate(0,835.5,773.5)"/><rect x="825" y="784" width="21" height="21" transform="rotate(0,835.5,794.5)"/><rect x="825" y="805" width="21" height="21" transform="rotate(0,835.5,815.5)"/></clipPath><clipPath id="clip-path-corners-square-color-0-0"><rect x="153" y="154" width="21" height="21" transform="rotate(0,163.5,164.5)"/><rect x="153" y="175" width="21" height="21" transform="rotate(0,163.5,185.5)"/><rect x="153" y="196" width="21" height="21" transform="rotate(0,163.5,206.5)"/><rect x="153" y="217" width="21" height="21" transform="rotate(0,163.5,227.5)"/><rect x="153" y="238" width="21" height="21" transform="rotate(0,163.5,248.5)"/><rect x="153" y="259" width="21" height="21" transform="rotate(0,163.5,269.5)"/><rect x="153" y="280" width="21" height="21" transform="rotate(0,163.5,290.5)"/><rect x="174" y="154" width="21" height="21" transform="rotate(0,184.5,164.5)"/><rect x="174" y="280" width="21" height="21" transform="rotate(0,184.5,290.5)"/><rect x="195" y="154" width="21" height="21" transform="rotate(0,205.5,164.5)"/><rect x="195" y="280" width="21" height="21" transform="rotate(0,205.5,290.5)"/><rect x="216" y="154" width="21" height="21" transform="rotate(0,226.5,164.5)"/><rect x="216" y="280" width="21" height="21" transform="rotate(0,226.5,290.5)"/><rect x="237" y="154" width="21" height="21" transform="rotate(0,247.5,164.5)"/><rect x="237" y="280" width="21" height="21" transform="rotate(0,247.5,290.5)"/><rect x="258" y="154" width="21" height="21" transform="rotate(0,268.5,164.5)"/><rect x="258" y="280" width="21" height="21" transform="rotate(0,268.5,290.5)"/><rect x="279" y="154" width="21" height="21" transform="rotate(0,289.5,164.5)"/><rect x="279" y="175" width="21" height="21" transform="rotate(0,289.5,185.5)"/><rect x="279" y="196" width="21" height="21" transform="rotate(0,289.5,206.5)"/><rect x="279" y="217" width="21" height="21" transform="rotate(0,289.5,227.5)"/><rect x="279" y="238" width="21" height="21" transform="rotate(0,289.5,248.5)"/><rect x="279" y="259" width="21" height="21" transform="rotate(0,289.5,269.5)"/><rect x="279" y="280" width="21" height="21" transform="rotate(0,289.5,290.5)"/></clipPath><clipPath id="clip-path-corners-dot-color-0-0"><rect x="195" y="196" width="21" height="21" transform="rotate(0,205.5,206.5)"/><rect x="195" y="217" width="21" height="21" transform="rotate(0,205.5,227.5)"/><rect x="195" y="238" width="21" height="21" transform="rotate(0,205.5,248.5)"/><rect x="216" y="196" width="21" height="21" transform="rotate(0,226.5,206.5)"/><rect x="216" y="217" width="21" height="21" transform="rotate(0,226.5,227.5)"/><rect x="216" y="238" width="21" height="21" transform="rotate(0,226.5,248.5)"/><rect x="237" y="196" width="21" height="21" transform="rotate(0,247.5,206.5)"/><rect x="237" y="217" width="21" height="21" transform="rotate(0,247.5,227.5)"/><rect x="237" y="238" width="21" height="21" transform="rotate(0,247.5,248.5)"/></clipPath><clipPath id="clip-path-corners-square-color-1-0"><rect x="699" y="154" width="21" height="21" transform="rotate(0,709.5,164.5)"/><rect x="699" y="175" width="21" height="21" transform="rotate(0,709.5,185.5)"/><rect x="699" y="196" width="21" height="21" transform="rotate(0,709.5,206.5)"/><rect x="699" y="217" width="21" height="21" transform="rotate(0,709.5,227.5)"/><rect x="699" y="238" width="21" height="21" transform="rotate(0,709.5,248.5)"/><rect x="699" y="259" width="21" height="21" transform="rotate(0,709.5,269.5)"/><rect x="699" y="280" width="21" height="21" transform="rotate(0,709.5,290.5)"/><rect x="720" y="154" width="21" height="21" transform="rotate(0,730.5,164.5)"/><rect x="720" y="280" width="21" height="21" transform="rotate(0,730.5,290.5)"/><rect x="741" y="154" width="21" height="21" transform="rotate(0,751.5,164.5)"/><rect x="741" y="280" width="21" height="21" transform="rotate(0,751.5,290.5)"/><rect x="762" y="154" width="21" height="21" transform="rotate(0,772.5,164.5)"/><rect x="762" y="280" width="21" height="21" transform="rotate(0,772.5,290.5)"/><rect x="783" y="154" width="21" height="21" transform="rotate(0,793.5,164.5)"/><rect x="783" y="280" width="21" height="21" transform="rotate(0,793.5,290.5)"/><rect x="804" y="154" width="21" height="21" transform="rotate(0,814.5,164.5)"/><rect x="804" y="280" width="21" height="21" transform="rotate(0,814.5,290.5)"/><rect x="825" y="154" width="21" height="21" transform="rotate(0,835.5,164.5)"/><rect x="825" y="175" width="21" height="21" transform="rotate(0,835.5,185.5)"/><rect x="825" y="196" width="21" height="21" transform="rotate(0,835.5,206.5)"/><rect x="825" y="217" width="21" height="21" transform="rotate(0,835.5,227.5)"/><rect x="825" y="238" width="21" height="21" transform="rotate(0,835.5,248.5)"/><rect x="825" y="259" width="21" height="21" transform="rotate(0,835.5,269.5)"/><rect x="825" y="280" width="21" height="21" transform="rotate(0,835.5,290.5)"/></clipPath><clipPath id="clip-path-corners-dot-color-1-0"><rect x="741" y="196" width="21" height="21" transform="rotate(0,751.5,206.5)"/><rect x="741" y="217" width="21" height="21" transform="rotate(0,751.5,227.5)"/><rect x="741" y="238" width="21" height="21" transform="rotate(0,751.5,248.5)"/><rect x="762" y="196" width="21" height="21" transform="rotate(0,772.5,206.5)"/><rect x="762" y="217" width="21" height="21" transform="rotate(0,772.5,227.5)"/><rect x="762" y="238" width="21" height="21" transform="rotate(0,772.5,248.5)"/><rect x="783" y="196" width="21" height="21" transform="rotate(0,793.5,206.5)"/><rect x="783" y="217" width="21" height="21" transform="rotate(0,793.5,227.5)"/><rect x="783" y="238" width="21" height="21" transform="rotate(0,793.5,248.5)"/></clipPath><clipPath id="clip-path-corners-square-color-0-1"><rect x="153" y="700" width="21" height="21" transform="rotate(0,163.5,710.5)"/><rect x="153" y="721" width="21" height="21" transform="rotate(0,163.5,731.5)"/><rect x="153" y="742" width="21" height="21" transform="rotate(0,163.5,752.5)"/><rect x="153" y="763" width="21" height="21" transform="rotate(0,163.5,773.5)"/><rect x="153" y="784" width="21" height="21" transform="rotate(0,163.5,794.5)"/><rect x="153" y="805" width="21" height="21" transform="rotate(0,163.5,815.5)"/><rect x="153" y="826" width="21" height="21" transform="rotate(0,163.5,836.5)"/><rect x="174" y="700" width="21" height="21" transform="rotate(0,184.5,710.5)"/><rect x="174" y="826" width="21" height="21" transform="rotate(0,184.5,836.5)"/><rect x="195" y="700" width="21" height="21" transform="rotate(0,205.5,710.5)"/><rect x="195" y="826" width="21" height="21" transform="rotate(0,205.5,836.5)"/><rect x="216" y="700" width="21" height="21" transform="rotate(0,226.5,710.5)"/><rect x="216" y="826" width="21" height="21" transform="rotate(0,226.5,836.5)"/><rect x="237" y="700" width="21" height="21" transform="rotate(0,247.5,710.5)"/><rect x="237" y="826" width="21" height="21" transform="rotate(0,247.5,836.5)"/><rect x="258" y="700" width="21" height="21" transform="rotate(0,268.5,710.5)"/><rect x="258" y="826" width="21" height="21" transform="rotate(0,268.5,836.5)"/><rect x="279" y="700" width="21" height="21" transform="rotate(0,289.5,710.5)"/><rect x="279" y="721" width="21" height="21" transform="rotate(0,289.5,731.5)"/><rect x="279" y="742" width="21" height="21" transform="rotate(0,289.5,752.5)"/><rect x="279" y="763" width="21" height="21" transform="rotate(0,289.5,773.5)"/><rect x="279" y="784" width="21" height="21" transform="rotate(0,289.5,794.5)"/><rect x="279" y="805" width="21" height="21" transform="rotate(0,289.5,815.5)"/><rect x="279" y="826" width="21" height="21" transform="rotate(0,289.5,836.5)"/></clipPath><clipPath id="clip-path-corners-dot-color-0-1"><rect x="195" y="742" width="21" height="21" transform="rotate(0,205.5,752.5)"/><rect x="195" y="763" width="21" height="21" transform="rotate(0,205.5,773.5)"/><rect x="195" y="784" width="21" height="21" transform="rotate(0,205.5,794.5)"/><rect x="216" y="742" width="21" height="21" transform="rotate(0,226.5,752.5)"/><rect x="216" y="763" width="21" height="21" transform="rotate(0,226.5,773.5)"/><rect x="216" y="784" width="21" height="21" transform="rotate(0,226.5,794.5)"/><rect x="237" y="742" width="21" height="21" transform="rotate(0,247.5,752.5)"/><rect x="237" y="763" width="21" height="21" transform="rotate(0,247.5,773.5)"/><rect x="237" y="784" width="21" height="21" transform="rotate(0,247.5,794.5)"/></clipPath></defs><defs/><text x="50%" y="1080" fill="#ffffff" dominant-baseline="middle" text-anchor="middle" font-family="sans-serif" font-size="90" font-weight="600">Scan To Order</text><rect x="112" y="112" height="777" width="776" clip-path="url('#clip-path-background-color')" fill="#ffffff"/><rect x="153" y="154" height="693" width="693" clip-path="url('#clip-path-dot-color')" fill="#000000"/><rect x="153" y="154" height="147" width="147" clip-path="url('#clip-path-corners-square-color-0-0')" fill="#000000"/><rect x="195" y="196" height="63" width="63" clip-path="url('#clip-path-corners-dot-color-0-0')" fill="#000000"/><rect x="699" y="154" height="147" width="147" clip-path="url('#clip-path-corners-square-color-1-0')" fill="#000000"/><rect x="741" y="196" height="63" width="63" clip-path="url('#clip-path-corners-dot-color-1-0')" fill="#000000"/><rect x="153" y="700" height="147" width="147" clip-path="url('#clip-path-corners-square-color-0-1')" fill="#000000"/><rect x="195" y="742" height="63" width="63" clip-path="url('#clip-path-corners-dot-color-0-1')" fill="#000000"/></svg>