<svg xmlns="http://www.w3.org/2000/svg" version="1.1" xmlns:xlink="http://www.w3.org/1999/xlink" width="512" height="512" x="0" y="0" viewBox="0 0 512 512" style="enable-background:new 0 0 512 512" xml:space="preserve" class=""><g transform="matrix(0.2,0,0,0.2,204.7629028320313,204.81323089599616)"><path d="M500.168 113.547c-9.174-17.964-23.8-30.223-42.283-35.451-24.959-7.059-51.918-.482-71.593 9.267a87.774 87.774 0 0 0-142.538-43.58 87.781 87.781 0 0 0-143.436 47.3c-33.007-.248-57.594 8.83-77.039 28.274-18.81 18.808-24.245 44.029-14.538 67.464 11.625 28.065 41.459 46.111 78.781 48.117v68.454c0 7.508 5.36 18.451 51.707 26.751 30.021 5.375 69.847 8.336 112.145 8.336s82.124-2.961 112.144-8.336c46.347-8.3 51.707-19.243 51.707-26.751v-69.474c27.447-6.229 68.992-28.906 85.342-60.609 9.902-19.199 9.764-39.864-.399-59.762zM401.225 287.23c-7.719-3.692-19.577-7.343-37.707-10.589-30.02-5.376-69.847-8.337-112.144-8.337s-82.125 2.961-112.145 8.337c-18.13 3.246-29.988 6.9-37.707 10.589v-52.54c17.388-2.146 33.645-11.881 50.737-22.123 29.341-17.581 57.054-34.186 92.431-16.071 61.726 31.608 108.382 40.22 140.895 40.219 5.637 0 10.848-.259 15.64-.7zm-44.892 29.941c-28.638 4.712-65.914 7.308-104.959 7.308s-76.322-2.6-104.96-7.308c-31.078-5.113-42.159-11.193-44.561-13.779 2.4-2.587 13.483-8.667 44.561-13.78 28.638-4.713 65.914-7.308 104.96-7.308s76.321 2.6 104.959 7.308c31.078 5.113 42.159 11.193 44.562 13.78-2.403 2.586-13.484 8.666-44.562 13.779zm131.791-150.279c-15.235 29.54-57.518 50.866-80.92 54.314-29.6 4.362-80.71 1.45-156.133-37.171-13.046-6.681-25.287-9.37-36.857-9.37-25.938 0-48.5 13.518-69.151 25.893-17.656 10.58-34.334 20.573-50.541 20.573-41.6 0-64.9-20.49-72.847-39.667-7.465-18.024-3.165-37.541 11.5-52.21 17.9-17.895 40.3-25.314 72.6-24.043 35.149 2.123 56.149 21.034 65.541 32.122A7 7 0 0 0 182 128.285c-17.048-20.129-40.793-32.836-67.5-36.3a74.183 74.183 0 0 1 71.556-55.843 73.224 73.224 0 0 1 52.7 22.167 7 7 0 0 0 10 0 73.217 73.217 0 0 1 52.7-22.167 74.183 74.183 0 0 1 72.219 58.741c-14.508 10.922-28.762 31.149-28.762 53.468a7 7 0 1 0 14 0c0-21.9 17.077-38.565 26.152-44.355 16.552-10.07 44.528-19.354 69.011-12.43 14.851 4.2 26.164 13.738 33.626 28.348 8.137 15.937 8.28 31.742.422 46.978zm-23.068 189.576-79.014 21.172c-1.139.306-1.952.227-2.414-.235a1.994 1.994 0 0 1-.486-1.817c.169-.63.832-1.105 1.972-1.41l79.014-21.172a15.86 15.86 0 0 0-7.563-30.8l-107.611 24.05a22.6 22.6 0 0 0-17.511 24.722l-84.8 22.722-175.162-46.936a12.147 12.147 0 0 0-11.756 20.3l46.418 46.665a6.991 6.991 0 0 0 1.575 1.18c-26.245 5.58-28.213 6.107-28.972 6.31a34.911 34.911 0 1 0 18.072 67.442c5.639-1.512 93.38-29.251 131.328-41.261l57.63 15.442a7 7 0 0 0 8.573-4.95l1.672-6.241 113.314 30.362a21.715 21.715 0 0 0 5.626.746 21.6 21.6 0 0 0 5.555-42.471l-101.333-27.153 22-5.895a22.587 22.587 0 0 0 20.706 13.712 22.678 22.678 0 0 0 6.8-1.051l105.212-33a15.851 15.851 0 0 0-8.846-30.436zM334.844 384.56l2.471 9.223-45.178 12.106-18.445-4.943zm-241.65 90.578a20.911 20.911 0 0 1-10.825-40.4c1.6-.429 12.479-2.83 54.726-11.739l65.919 17.663C149.2 457.681 97.08 474.1 93.194 475.138zm189.444-27.631-167.9-44.988L74.5 362.067l215.554 57.758zm138.869 9.844a7.6 7.6 0 0 1-8.548 11.139l-113.314-30.362 3.933-14.68 113.315 30.363a7.545 7.545 0 0 1 4.614 3.54zm48.206-83.8-105.212 33a8.593 8.593 0 0 1-10.874-5.976l-8.048-30.036a8.594 8.594 0 0 1 6.427-10.612l107.612-24.046a1.844 1.844 0 0 1 2.2 1.342 1.851 1.851 0 0 1-1.309 2.268l-79.014 21.172A16.63 16.63 0 0 0 371 368.537a15.617 15.617 0 0 0-1.362 11.643c1.981 7.395 9.676 13.758 20.029 10.983l79.014-21.172a1.854 1.854 0 0 1 2.268 1.309 1.847 1.847 0 0 1-1.236 2.246z" fill="#0e1927" opacity="1" data-original="#000000" class=""></path></g></svg>